<mxfile host="app.diagrams.net" modified="2023-04-18T14:49:27.501Z" agent="Mozilla/5.0 (X11; Linux x86_64) AppleWebKit/537.36 (KHTML, like Gecko) Chrome/108.0.0.0 Safari/537.36" etag="-u7YM0SWCrPumSMc2ZNi" version="21.1.8" type="github">
  <diagram name="PÃ¡gina-1" id="ETAKhBSsJIIiWD8-yDzi">
    <mxGraphModel dx="1933" dy="649" grid="1" gridSize="10" guides="1" tooltips="1" connect="1" arrows="1" fold="1" page="1" pageScale="1" pageWidth="827" pageHeight="1169" math="0" shadow="0">
      <root>
        <mxCell id="0" />
        <mxCell id="1" parent="0" />
        <mxCell id="HX8ev9wCAKI_lF_zY04V-1" value="PRODUTO" style="rounded=0;whiteSpace=wrap;html=1;" vertex="1" parent="1">
          <mxGeometry x="120" y="240" width="120" height="60" as="geometry" />
        </mxCell>
        <mxCell id="HX8ev9wCAKI_lF_zY04V-2" value="FORNECEDOR" style="rounded=0;whiteSpace=wrap;html=1;" vertex="1" parent="1">
          <mxGeometry x="120" y="60" width="120" height="60" as="geometry" />
        </mxCell>
        <mxCell id="HX8ev9wCAKI_lF_zY04V-3" value="VENDA" style="whiteSpace=wrap;html=1;" vertex="1" parent="1">
          <mxGeometry x="120" y="420" width="120" height="60" as="geometry" />
        </mxCell>
        <mxCell id="HX8ev9wCAKI_lF_zY04V-4" value="NOTA FISCAL" style="whiteSpace=wrap;html=1;" vertex="1" parent="1">
          <mxGeometry x="360" y="420" width="120" height="60" as="geometry" />
        </mxCell>
        <mxCell id="HX8ev9wCAKI_lF_zY04V-5" value="CLIENTE" style="rounded=0;whiteSpace=wrap;html=1;" vertex="1" parent="1">
          <mxGeometry x="120" y="600" width="120" height="60" as="geometry" />
        </mxCell>
        <mxCell id="HX8ev9wCAKI_lF_zY04V-6" value="ITEM" style="rounded=0;whiteSpace=wrap;html=1;" vertex="1" parent="1">
          <mxGeometry x="360" y="240" width="120" height="60" as="geometry" />
        </mxCell>
        <mxCell id="HX8ev9wCAKI_lF_zY04V-7" value="&lt;span style=&quot;font-weight: normal;&quot;&gt;possui&lt;/span&gt;" style="rhombus;whiteSpace=wrap;html=1;fontStyle=1" vertex="1" parent="1">
          <mxGeometry x="140" y="160" width="80" height="50" as="geometry" />
        </mxCell>
        <mxCell id="HX8ev9wCAKI_lF_zY04V-9" value="" style="rhombus;whiteSpace=wrap;html=1;" vertex="1" parent="1">
          <mxGeometry x="140" y="340" width="80" height="50" as="geometry" />
        </mxCell>
        <mxCell id="HX8ev9wCAKI_lF_zY04V-10" value="" style="rhombus;whiteSpace=wrap;html=1;" vertex="1" parent="1">
          <mxGeometry x="380" y="340" width="80" height="50" as="geometry" />
        </mxCell>
        <mxCell id="HX8ev9wCAKI_lF_zY04V-11" value="" style="rhombus;whiteSpace=wrap;html=1;" vertex="1" parent="1">
          <mxGeometry x="260" y="425" width="80" height="50" as="geometry" />
        </mxCell>
        <mxCell id="HX8ev9wCAKI_lF_zY04V-12" value="" style="rhombus;whiteSpace=wrap;html=1;" vertex="1" parent="1">
          <mxGeometry x="260" y="245" width="80" height="50" as="geometry" />
        </mxCell>
        <mxCell id="HX8ev9wCAKI_lF_zY04V-13" value="" style="rhombus;whiteSpace=wrap;html=1;" vertex="1" parent="1">
          <mxGeometry x="140" y="520" width="80" height="50" as="geometry" />
        </mxCell>
        <mxCell id="HX8ev9wCAKI_lF_zY04V-14" value="" style="endArrow=none;html=1;rounded=0;entryX=0.5;entryY=1;entryDx=0;entryDy=0;exitX=0.5;exitY=0;exitDx=0;exitDy=0;" edge="1" parent="1" source="HX8ev9wCAKI_lF_zY04V-7" target="HX8ev9wCAKI_lF_zY04V-2">
          <mxGeometry width="50" height="50" relative="1" as="geometry">
            <mxPoint x="130" y="340" as="sourcePoint" />
            <mxPoint x="180" y="290" as="targetPoint" />
          </mxGeometry>
        </mxCell>
        <mxCell id="HX8ev9wCAKI_lF_zY04V-15" value="" style="endArrow=none;html=1;rounded=0;entryX=0.5;entryY=1;entryDx=0;entryDy=0;exitX=0.5;exitY=0;exitDx=0;exitDy=0;" edge="1" parent="1" source="HX8ev9wCAKI_lF_zY04V-1" target="HX8ev9wCAKI_lF_zY04V-7">
          <mxGeometry width="50" height="50" relative="1" as="geometry">
            <mxPoint x="130" y="340" as="sourcePoint" />
            <mxPoint x="180" y="290" as="targetPoint" />
          </mxGeometry>
        </mxCell>
        <mxCell id="HX8ev9wCAKI_lF_zY04V-16" value="" style="endArrow=none;html=1;rounded=0;entryX=0.5;entryY=1;entryDx=0;entryDy=0;exitX=0.5;exitY=0;exitDx=0;exitDy=0;" edge="1" parent="1" source="HX8ev9wCAKI_lF_zY04V-9" target="HX8ev9wCAKI_lF_zY04V-1">
          <mxGeometry width="50" height="50" relative="1" as="geometry">
            <mxPoint x="130" y="340" as="sourcePoint" />
            <mxPoint x="180" y="290" as="targetPoint" />
          </mxGeometry>
        </mxCell>
        <mxCell id="HX8ev9wCAKI_lF_zY04V-17" value="" style="endArrow=none;html=1;rounded=0;entryX=0.5;entryY=1;entryDx=0;entryDy=0;exitX=0.5;exitY=0;exitDx=0;exitDy=0;" edge="1" parent="1" source="HX8ev9wCAKI_lF_zY04V-3" target="HX8ev9wCAKI_lF_zY04V-9">
          <mxGeometry width="50" height="50" relative="1" as="geometry">
            <mxPoint x="130" y="340" as="sourcePoint" />
            <mxPoint x="180" y="290" as="targetPoint" />
          </mxGeometry>
        </mxCell>
        <mxCell id="HX8ev9wCAKI_lF_zY04V-18" value="" style="endArrow=none;html=1;rounded=0;entryX=0.5;entryY=1;entryDx=0;entryDy=0;exitX=0.5;exitY=0;exitDx=0;exitDy=0;" edge="1" parent="1" source="HX8ev9wCAKI_lF_zY04V-13" target="HX8ev9wCAKI_lF_zY04V-3">
          <mxGeometry width="50" height="50" relative="1" as="geometry">
            <mxPoint x="130" y="450" as="sourcePoint" />
            <mxPoint x="180" y="400" as="targetPoint" />
          </mxGeometry>
        </mxCell>
        <mxCell id="HX8ev9wCAKI_lF_zY04V-20" value="" style="endArrow=none;html=1;rounded=0;exitX=0.5;exitY=1;exitDx=0;exitDy=0;entryX=0.5;entryY=0;entryDx=0;entryDy=0;" edge="1" parent="1" source="HX8ev9wCAKI_lF_zY04V-13" target="HX8ev9wCAKI_lF_zY04V-5">
          <mxGeometry width="50" height="50" relative="1" as="geometry">
            <mxPoint x="130" y="450" as="sourcePoint" />
            <mxPoint x="180" y="400" as="targetPoint" />
          </mxGeometry>
        </mxCell>
        <mxCell id="HX8ev9wCAKI_lF_zY04V-21" value="" style="endArrow=none;html=1;rounded=0;entryX=0;entryY=0.5;entryDx=0;entryDy=0;exitX=1;exitY=0.5;exitDx=0;exitDy=0;" edge="1" parent="1" source="HX8ev9wCAKI_lF_zY04V-3" target="HX8ev9wCAKI_lF_zY04V-11">
          <mxGeometry width="50" height="50" relative="1" as="geometry">
            <mxPoint x="190" y="430" as="sourcePoint" />
            <mxPoint x="240" y="380" as="targetPoint" />
          </mxGeometry>
        </mxCell>
        <mxCell id="HX8ev9wCAKI_lF_zY04V-22" value="" style="endArrow=none;html=1;rounded=0;entryX=0;entryY=0.5;entryDx=0;entryDy=0;" edge="1" parent="1" target="HX8ev9wCAKI_lF_zY04V-4">
          <mxGeometry width="50" height="50" relative="1" as="geometry">
            <mxPoint x="340" y="450" as="sourcePoint" />
            <mxPoint x="270" y="460" as="targetPoint" />
          </mxGeometry>
        </mxCell>
        <mxCell id="HX8ev9wCAKI_lF_zY04V-23" value="" style="endArrow=none;html=1;rounded=0;entryX=0.5;entryY=1;entryDx=0;entryDy=0;exitX=0.5;exitY=0;exitDx=0;exitDy=0;" edge="1" parent="1" source="HX8ev9wCAKI_lF_zY04V-4" target="HX8ev9wCAKI_lF_zY04V-10">
          <mxGeometry width="50" height="50" relative="1" as="geometry">
            <mxPoint x="250" y="460" as="sourcePoint" />
            <mxPoint x="300" y="410" as="targetPoint" />
          </mxGeometry>
        </mxCell>
        <mxCell id="HX8ev9wCAKI_lF_zY04V-24" value="" style="endArrow=none;html=1;rounded=0;entryX=0.5;entryY=1;entryDx=0;entryDy=0;exitX=0.5;exitY=0;exitDx=0;exitDy=0;" edge="1" parent="1" source="HX8ev9wCAKI_lF_zY04V-10" target="HX8ev9wCAKI_lF_zY04V-6">
          <mxGeometry width="50" height="50" relative="1" as="geometry">
            <mxPoint x="430" y="430" as="sourcePoint" />
            <mxPoint x="430" y="400" as="targetPoint" />
          </mxGeometry>
        </mxCell>
        <mxCell id="HX8ev9wCAKI_lF_zY04V-25" value="" style="endArrow=none;html=1;rounded=0;entryX=0;entryY=0.5;entryDx=0;entryDy=0;exitX=1;exitY=0.5;exitDx=0;exitDy=0;" edge="1" parent="1" source="HX8ev9wCAKI_lF_zY04V-12" target="HX8ev9wCAKI_lF_zY04V-6">
          <mxGeometry width="50" height="50" relative="1" as="geometry">
            <mxPoint x="350" y="340" as="sourcePoint" />
            <mxPoint x="400" y="290" as="targetPoint" />
          </mxGeometry>
        </mxCell>
        <mxCell id="HX8ev9wCAKI_lF_zY04V-26" value="" style="endArrow=none;html=1;rounded=0;entryX=1;entryY=0.5;entryDx=0;entryDy=0;exitX=0;exitY=0.5;exitDx=0;exitDy=0;" edge="1" parent="1" source="HX8ev9wCAKI_lF_zY04V-12" target="HX8ev9wCAKI_lF_zY04V-1">
          <mxGeometry width="50" height="50" relative="1" as="geometry">
            <mxPoint x="350" y="340" as="sourcePoint" />
            <mxPoint x="400" y="290" as="targetPoint" />
          </mxGeometry>
        </mxCell>
        <mxCell id="HX8ev9wCAKI_lF_zY04V-27" value="" style="endArrow=none;html=1;rounded=0;entryX=0.5;entryY=1;entryDx=0;entryDy=0;exitX=0.375;exitY=0;exitDx=0;exitDy=0;exitPerimeter=0;" edge="1" parent="1">
          <mxGeometry width="50" height="50" relative="1" as="geometry">
            <mxPoint x="265" y="65" as="sourcePoint" />
            <mxPoint x="265" y="65" as="targetPoint" />
          </mxGeometry>
        </mxCell>
        <mxCell id="HX8ev9wCAKI_lF_zY04V-28" value="" style="ellipse;whiteSpace=wrap;html=1;aspect=fixed;" vertex="1" parent="1">
          <mxGeometry x="270" y="65" width="10" height="10" as="geometry" />
        </mxCell>
        <mxCell id="HX8ev9wCAKI_lF_zY04V-29" value="" style="endArrow=none;html=1;rounded=0;exitX=1;exitY=0.25;exitDx=0;exitDy=0;entryX=0;entryY=0.5;entryDx=0;entryDy=0;" edge="1" parent="1" target="HX8ev9wCAKI_lF_zY04V-28">
          <mxGeometry width="50" height="50" relative="1" as="geometry">
            <mxPoint x="240" y="70" as="sourcePoint" />
            <mxPoint x="275" y="70" as="targetPoint" />
          </mxGeometry>
        </mxCell>
        <mxCell id="HX8ev9wCAKI_lF_zY04V-30" value="" style="ellipse;whiteSpace=wrap;html=1;aspect=fixed;fillColor=#000000;" vertex="1" parent="1">
          <mxGeometry x="270" y="85" width="10" height="10" as="geometry" />
        </mxCell>
        <mxCell id="HX8ev9wCAKI_lF_zY04V-31" value="" style="endArrow=none;html=1;rounded=0;exitX=1;exitY=0.25;exitDx=0;exitDy=0;entryX=0;entryY=0.5;entryDx=0;entryDy=0;" edge="1" parent="1" target="HX8ev9wCAKI_lF_zY04V-30">
          <mxGeometry width="50" height="50" relative="1" as="geometry">
            <mxPoint x="240" y="90" as="sourcePoint" />
            <mxPoint x="275" y="90" as="targetPoint" />
          </mxGeometry>
        </mxCell>
        <mxCell id="HX8ev9wCAKI_lF_zY04V-32" value="" style="ellipse;whiteSpace=wrap;html=1;aspect=fixed;" vertex="1" parent="1">
          <mxGeometry x="270" y="105" width="10" height="10" as="geometry" />
        </mxCell>
        <mxCell id="HX8ev9wCAKI_lF_zY04V-33" value="" style="endArrow=none;html=1;rounded=0;exitX=1;exitY=0.25;exitDx=0;exitDy=0;entryX=0;entryY=0.5;entryDx=0;entryDy=0;" edge="1" parent="1" target="HX8ev9wCAKI_lF_zY04V-32">
          <mxGeometry width="50" height="50" relative="1" as="geometry">
            <mxPoint x="240" y="110" as="sourcePoint" />
            <mxPoint x="275" y="110" as="targetPoint" />
          </mxGeometry>
        </mxCell>
        <mxCell id="HX8ev9wCAKI_lF_zY04V-35" value="CNPJ" style="text;html=1;align=center;verticalAlign=middle;resizable=0;points=[];autosize=1;strokeColor=none;fillColor=none;" vertex="1" parent="1">
          <mxGeometry x="280" y="75" width="50" height="30" as="geometry" />
        </mxCell>
        <mxCell id="HX8ev9wCAKI_lF_zY04V-36" value="nome" style="text;html=1;align=center;verticalAlign=middle;resizable=0;points=[];autosize=1;strokeColor=none;fillColor=none;" vertex="1" parent="1">
          <mxGeometry x="280" y="95" width="50" height="30" as="geometry" />
        </mxCell>
        <mxCell id="HX8ev9wCAKI_lF_zY04V-37" value="telefone" style="text;html=1;align=center;verticalAlign=middle;resizable=0;points=[];autosize=1;strokeColor=none;fillColor=none;" vertex="1" parent="1">
          <mxGeometry x="280" y="55" width="70" height="30" as="geometry" />
        </mxCell>
        <mxCell id="HX8ev9wCAKI_lF_zY04V-46" value="" style="ellipse;whiteSpace=wrap;html=1;aspect=fixed;fontStyle=1" vertex="1" parent="1">
          <mxGeometry x="80" y="240" width="10" height="10" as="geometry" />
        </mxCell>
        <mxCell id="HX8ev9wCAKI_lF_zY04V-47" value="" style="endArrow=none;html=1;rounded=0;exitX=1;exitY=0.5;exitDx=0;exitDy=0;entryX=0;entryY=0.5;entryDx=0;entryDy=0;fontStyle=1" edge="1" parent="1" source="HX8ev9wCAKI_lF_zY04V-46">
          <mxGeometry width="50" height="50" relative="1" as="geometry">
            <mxPoint x="90" y="244.8" as="sourcePoint" />
            <mxPoint x="120" y="244.8" as="targetPoint" />
          </mxGeometry>
        </mxCell>
        <mxCell id="HX8ev9wCAKI_lF_zY04V-49" value="" style="ellipse;whiteSpace=wrap;html=1;aspect=fixed;fillColor=#000000;" vertex="1" parent="1">
          <mxGeometry x="80" y="260" width="10" height="10" as="geometry" />
        </mxCell>
        <mxCell id="HX8ev9wCAKI_lF_zY04V-50" value="" style="endArrow=none;html=1;rounded=0;exitX=1;exitY=0.5;exitDx=0;exitDy=0;entryX=0;entryY=0.5;entryDx=0;entryDy=0;" edge="1" parent="1" source="HX8ev9wCAKI_lF_zY04V-49">
          <mxGeometry width="50" height="50" relative="1" as="geometry">
            <mxPoint x="90" y="264.8" as="sourcePoint" />
            <mxPoint x="120" y="264.8" as="targetPoint" />
          </mxGeometry>
        </mxCell>
        <mxCell id="HX8ev9wCAKI_lF_zY04V-52" value="" style="ellipse;whiteSpace=wrap;html=1;aspect=fixed;" vertex="1" parent="1">
          <mxGeometry x="80" y="240" width="10" height="10" as="geometry" />
        </mxCell>
        <mxCell id="HX8ev9wCAKI_lF_zY04V-53" value="" style="endArrow=none;html=1;rounded=0;exitX=1;exitY=0.5;exitDx=0;exitDy=0;entryX=0;entryY=0.5;entryDx=0;entryDy=0;" edge="1" parent="1" source="HX8ev9wCAKI_lF_zY04V-52">
          <mxGeometry width="50" height="50" relative="1" as="geometry">
            <mxPoint x="90" y="244.8" as="sourcePoint" />
            <mxPoint x="120" y="244.8" as="targetPoint" />
          </mxGeometry>
        </mxCell>
        <mxCell id="HX8ev9wCAKI_lF_zY04V-54" value="quant. em estoque" style="text;html=1;align=center;verticalAlign=middle;resizable=0;points=[];autosize=1;strokeColor=none;fillColor=none;" vertex="1" parent="1">
          <mxGeometry x="-40" y="230" width="120" height="30" as="geometry" />
        </mxCell>
        <mxCell id="HX8ev9wCAKI_lF_zY04V-55" value="cÃ³digo" style="text;html=1;align=center;verticalAlign=middle;resizable=0;points=[];autosize=1;strokeColor=none;fillColor=none;" vertex="1" parent="1">
          <mxGeometry x="20" y="250" width="60" height="30" as="geometry" />
        </mxCell>
        <mxCell id="HX8ev9wCAKI_lF_zY04V-56" value="" style="ellipse;whiteSpace=wrap;html=1;aspect=fixed;fontStyle=1" vertex="1" parent="1">
          <mxGeometry x="80" y="280" width="10" height="10" as="geometry" />
        </mxCell>
        <mxCell id="HX8ev9wCAKI_lF_zY04V-57" value="" style="endArrow=none;html=1;rounded=0;exitX=1;exitY=0.5;exitDx=0;exitDy=0;entryX=0;entryY=0.5;entryDx=0;entryDy=0;fontStyle=1" edge="1" parent="1" source="HX8ev9wCAKI_lF_zY04V-56">
          <mxGeometry width="50" height="50" relative="1" as="geometry">
            <mxPoint x="90" y="284.8" as="sourcePoint" />
            <mxPoint x="120" y="284.8" as="targetPoint" />
          </mxGeometry>
        </mxCell>
        <mxCell id="HX8ev9wCAKI_lF_zY04V-58" value="" style="ellipse;whiteSpace=wrap;html=1;aspect=fixed;" vertex="1" parent="1">
          <mxGeometry x="80" y="280" width="10" height="10" as="geometry" />
        </mxCell>
        <mxCell id="HX8ev9wCAKI_lF_zY04V-59" value="" style="endArrow=none;html=1;rounded=0;exitX=1;exitY=0.5;exitDx=0;exitDy=0;entryX=0;entryY=0.5;entryDx=0;entryDy=0;" edge="1" parent="1" source="HX8ev9wCAKI_lF_zY04V-58">
          <mxGeometry width="50" height="50" relative="1" as="geometry">
            <mxPoint x="90" y="284.8" as="sourcePoint" />
            <mxPoint x="120" y="284.8" as="targetPoint" />
          </mxGeometry>
        </mxCell>
        <mxCell id="HX8ev9wCAKI_lF_zY04V-60" value="preÃ§o" style="text;html=1;align=center;verticalAlign=middle;resizable=0;points=[];autosize=1;strokeColor=none;fillColor=none;" vertex="1" parent="1">
          <mxGeometry x="30" y="270" width="50" height="30" as="geometry" />
        </mxCell>
        <mxCell id="HX8ev9wCAKI_lF_zY04V-63" value="" style="ellipse;whiteSpace=wrap;html=1;aspect=fixed;" vertex="1" parent="1">
          <mxGeometry x="80" y="300" width="10" height="10" as="geometry" />
        </mxCell>
        <mxCell id="HX8ev9wCAKI_lF_zY04V-64" value="" style="endArrow=none;html=1;rounded=0;exitX=1;exitY=0.5;exitDx=0;exitDy=0;entryX=0;entryY=1;entryDx=0;entryDy=0;" edge="1" parent="1" source="HX8ev9wCAKI_lF_zY04V-63" target="HX8ev9wCAKI_lF_zY04V-1">
          <mxGeometry width="50" height="50" relative="1" as="geometry">
            <mxPoint x="90" y="314.8" as="sourcePoint" />
            <mxPoint x="120" y="314.8" as="targetPoint" />
          </mxGeometry>
        </mxCell>
        <mxCell id="HX8ev9wCAKI_lF_zY04V-65" value="nome" style="text;html=1;align=center;verticalAlign=middle;resizable=0;points=[];autosize=1;strokeColor=none;fillColor=none;" vertex="1" parent="1">
          <mxGeometry x="30" y="290" width="50" height="30" as="geometry" />
        </mxCell>
        <mxCell id="HX8ev9wCAKI_lF_zY04V-67" value="" style="ellipse;whiteSpace=wrap;html=1;aspect=fixed;" vertex="1" parent="1">
          <mxGeometry x="510" y="240" width="10" height="10" as="geometry" />
        </mxCell>
        <mxCell id="HX8ev9wCAKI_lF_zY04V-68" value="" style="endArrow=none;html=1;rounded=0;exitX=1;exitY=0.25;exitDx=0;exitDy=0;entryX=0;entryY=0.5;entryDx=0;entryDy=0;" edge="1" parent="1" target="HX8ev9wCAKI_lF_zY04V-67">
          <mxGeometry width="50" height="50" relative="1" as="geometry">
            <mxPoint x="480" y="245" as="sourcePoint" />
            <mxPoint x="515" y="245" as="targetPoint" />
          </mxGeometry>
        </mxCell>
        <mxCell id="HX8ev9wCAKI_lF_zY04V-69" value="quant. comprada" style="text;html=1;align=center;verticalAlign=middle;resizable=0;points=[];autosize=1;strokeColor=none;fillColor=none;" vertex="1" parent="1">
          <mxGeometry x="520" y="230" width="110" height="30" as="geometry" />
        </mxCell>
        <mxCell id="HX8ev9wCAKI_lF_zY04V-70" value="" style="endArrow=none;html=1;rounded=0;entryX=0.5;entryY=1;entryDx=0;entryDy=0;exitX=0.375;exitY=0;exitDx=0;exitDy=0;exitPerimeter=0;" edge="1" parent="1">
          <mxGeometry width="50" height="50" relative="1" as="geometry">
            <mxPoint x="265" y="605" as="sourcePoint" />
            <mxPoint x="265" y="605" as="targetPoint" />
          </mxGeometry>
        </mxCell>
        <mxCell id="HX8ev9wCAKI_lF_zY04V-71" value="" style="ellipse;whiteSpace=wrap;html=1;aspect=fixed;" vertex="1" parent="1">
          <mxGeometry x="270" y="605" width="10" height="10" as="geometry" />
        </mxCell>
        <mxCell id="HX8ev9wCAKI_lF_zY04V-72" value="" style="endArrow=none;html=1;rounded=0;exitX=1;exitY=0.25;exitDx=0;exitDy=0;entryX=0;entryY=0.5;entryDx=0;entryDy=0;" edge="1" parent="1" target="HX8ev9wCAKI_lF_zY04V-71">
          <mxGeometry width="50" height="50" relative="1" as="geometry">
            <mxPoint x="240" y="610" as="sourcePoint" />
            <mxPoint x="275" y="610" as="targetPoint" />
          </mxGeometry>
        </mxCell>
        <mxCell id="HX8ev9wCAKI_lF_zY04V-73" value="" style="ellipse;whiteSpace=wrap;html=1;aspect=fixed;fillColor=#000000;" vertex="1" parent="1">
          <mxGeometry x="270" y="625" width="10" height="10" as="geometry" />
        </mxCell>
        <mxCell id="HX8ev9wCAKI_lF_zY04V-74" value="" style="endArrow=none;html=1;rounded=0;exitX=1;exitY=0.25;exitDx=0;exitDy=0;entryX=0;entryY=0.5;entryDx=0;entryDy=0;" edge="1" parent="1" target="HX8ev9wCAKI_lF_zY04V-73">
          <mxGeometry width="50" height="50" relative="1" as="geometry">
            <mxPoint x="240" y="630" as="sourcePoint" />
            <mxPoint x="275" y="630" as="targetPoint" />
          </mxGeometry>
        </mxCell>
        <mxCell id="HX8ev9wCAKI_lF_zY04V-75" value="" style="ellipse;whiteSpace=wrap;html=1;aspect=fixed;" vertex="1" parent="1">
          <mxGeometry x="270" y="645" width="10" height="10" as="geometry" />
        </mxCell>
        <mxCell id="HX8ev9wCAKI_lF_zY04V-76" value="" style="endArrow=none;html=1;rounded=0;exitX=1;exitY=0.25;exitDx=0;exitDy=0;entryX=0;entryY=0.5;entryDx=0;entryDy=0;" edge="1" parent="1" target="HX8ev9wCAKI_lF_zY04V-75">
          <mxGeometry width="50" height="50" relative="1" as="geometry">
            <mxPoint x="240" y="650" as="sourcePoint" />
            <mxPoint x="275" y="650" as="targetPoint" />
          </mxGeometry>
        </mxCell>
        <mxCell id="HX8ev9wCAKI_lF_zY04V-77" value="CPF" style="text;html=1;align=center;verticalAlign=middle;resizable=0;points=[];autosize=1;strokeColor=none;fillColor=none;" vertex="1" parent="1">
          <mxGeometry x="280" y="615" width="50" height="30" as="geometry" />
        </mxCell>
        <mxCell id="HX8ev9wCAKI_lF_zY04V-78" value="nome" style="text;html=1;align=center;verticalAlign=middle;resizable=0;points=[];autosize=1;strokeColor=none;fillColor=none;" vertex="1" parent="1">
          <mxGeometry x="280" y="635" width="50" height="30" as="geometry" />
        </mxCell>
        <mxCell id="HX8ev9wCAKI_lF_zY04V-79" value="telefone" style="text;html=1;align=center;verticalAlign=middle;resizable=0;points=[];autosize=1;strokeColor=none;fillColor=none;" vertex="1" parent="1">
          <mxGeometry x="280" y="595" width="70" height="30" as="geometry" />
        </mxCell>
      </root>
    </mxGraphModel>
  </diagram>
</mxfile>
